G04 Layer_Color=8388736*
%FSLAX44Y44*%
%MOMM*%
G71*
G01*
G75*
%ADD48C,1.9000*%
%ADD49R,1.9000X1.9000*%
%ADD55R,2.8000X2.7000*%
%ADD56R,2.7000X2.8000*%
%ADD57R,1.2000X0.7500*%
%ADD58R,0.7500X1.2000*%
%ADD59R,0.8000X2.4000*%
%ADD60R,3.7000X2.4000*%
%ADD61R,0.6700X1.6200*%
%ADD62R,1.6200X0.6700*%
%ADD63R,2.9000X2.2000*%
%ADD64C,3.0480*%
%ADD65R,1.5000X1.1000*%
%ADD66R,1.1000X1.5000*%
%ADD67R,1.0000X1.0000*%
%ADD68R,1.8000X3.2000*%
%ADD69R,1.4500X0.5000*%
%ADD70R,1.6000X1.8000*%
%ADD71R,2.1000X2.1000*%
%ADD72R,0.8858X0.7588*%
%ADD73R,0.7588X0.8858*%
%ADD74R,1.5000X0.9000*%
%ADD75R,0.9000X1.5000*%
%ADD76R,1.1000X0.8000*%
%ADD77O,1.8000X2.2000*%
%ADD78R,1.8000X2.2000*%
%ADD79C,3.4000*%
%ADD80C,7.6000*%
%ADD81C,4.2000*%
G04:AMPARAMS|DCode=82|XSize=2.2mm|YSize=1.4mm|CornerRadius=0.46mm|HoleSize=0mm|Usage=FLASHONLY|Rotation=0.000|XOffset=0mm|YOffset=0mm|HoleType=Round|Shape=RoundedRectangle|*
%AMROUNDEDRECTD82*
21,1,2.2000,0.4800,0,0,0.0*
21,1,1.2800,1.4000,0,0,0.0*
1,1,0.9200,0.6400,-0.2400*
1,1,0.9200,-0.6400,-0.2400*
1,1,0.9200,-0.6400,0.2400*
1,1,0.9200,0.6400,0.2400*
%
%ADD82ROUNDEDRECTD82*%
%ADD83R,2.2000X1.8000*%
%ADD84O,2.2000X1.8000*%
%ADD85C,2.1000*%
%ADD86R,2.1000X2.1000*%
D48*
X76200Y497840D02*
D03*
X50800D02*
D03*
X25400D02*
D03*
X76200Y472440D02*
D03*
X50800D02*
D03*
X76200Y411480D02*
D03*
X50800D02*
D03*
X25400D02*
D03*
X76200Y386080D02*
D03*
X50800D02*
D03*
X25400Y342000D02*
D03*
X50800Y316600D02*
D03*
X25400D02*
D03*
D49*
Y472440D02*
D03*
Y386080D02*
D03*
X50800Y342000D02*
D03*
D55*
X249000Y317500D02*
D03*
Y268500D02*
D03*
D56*
X412500Y290000D02*
D03*
X461500D02*
D03*
D57*
X238000Y141000D02*
D03*
Y160000D02*
D03*
X211000Y141000D02*
D03*
Y150500D02*
D03*
Y160000D02*
D03*
X197500Y426500D02*
D03*
Y445500D02*
D03*
X170500Y426500D02*
D03*
Y436000D02*
D03*
Y445500D02*
D03*
D58*
X652500Y140500D02*
D03*
X671500D02*
D03*
X652500Y167500D02*
D03*
X662000D02*
D03*
X671500D02*
D03*
X69500Y277500D02*
D03*
X50500D02*
D03*
X69500Y250500D02*
D03*
X60000D02*
D03*
X50500D02*
D03*
D59*
X136600Y116000D02*
D03*
X149300D02*
D03*
X162000D02*
D03*
X174700D02*
D03*
X187400D02*
D03*
D60*
X162000Y178000D02*
D03*
D61*
X182000Y258000D02*
D03*
X174000D02*
D03*
X166000D02*
D03*
X158000D02*
D03*
X150000D02*
D03*
X142000D02*
D03*
X134000D02*
D03*
X126000D02*
D03*
Y342000D02*
D03*
X134000D02*
D03*
X142000D02*
D03*
X150000D02*
D03*
X158000D02*
D03*
X166000D02*
D03*
X174000D02*
D03*
X182000D02*
D03*
D62*
X112000Y272000D02*
D03*
Y280000D02*
D03*
Y288000D02*
D03*
Y296000D02*
D03*
Y304000D02*
D03*
Y312000D02*
D03*
Y320000D02*
D03*
Y328000D02*
D03*
X196000D02*
D03*
Y320000D02*
D03*
Y312000D02*
D03*
Y304000D02*
D03*
Y296000D02*
D03*
Y288000D02*
D03*
Y280000D02*
D03*
Y272000D02*
D03*
D63*
X22000Y60000D02*
D03*
Y92000D02*
D03*
D64*
X221000Y46000D02*
D03*
X670000Y15750D02*
D03*
Y508000D02*
D03*
X103000Y516000D02*
D03*
D65*
X448000Y77500D02*
D03*
Y58500D02*
D03*
X199000Y199500D02*
D03*
Y180500D02*
D03*
X233000Y102500D02*
D03*
Y121500D02*
D03*
X648000Y205500D02*
D03*
Y186500D02*
D03*
X222000Y180500D02*
D03*
Y199500D02*
D03*
X218000Y444500D02*
D03*
Y425500D02*
D03*
X356000Y48500D02*
D03*
Y67500D02*
D03*
X304000Y47500D02*
D03*
Y66500D02*
D03*
X210000Y102500D02*
D03*
Y121500D02*
D03*
X115000Y112500D02*
D03*
Y131500D02*
D03*
X636000Y472500D02*
D03*
Y453500D02*
D03*
X23000Y432500D02*
D03*
Y451500D02*
D03*
X176000Y237500D02*
D03*
Y218500D02*
D03*
X218000Y300500D02*
D03*
Y319500D02*
D03*
X199000Y237500D02*
D03*
Y218500D02*
D03*
X222000Y218500D02*
D03*
Y237500D02*
D03*
D66*
X487500Y53000D02*
D03*
X468500D02*
D03*
X581750Y335250D02*
D03*
X600750D02*
D03*
X89500Y239000D02*
D03*
X108500D02*
D03*
X48500Y293000D02*
D03*
X67500D02*
D03*
X654500Y123000D02*
D03*
X673500D02*
D03*
X447500Y258000D02*
D03*
X466500D02*
D03*
X426500D02*
D03*
X407500D02*
D03*
X445500Y99000D02*
D03*
X464500D02*
D03*
X427500D02*
D03*
X408500D02*
D03*
X427500Y76000D02*
D03*
X408500D02*
D03*
X243500Y482000D02*
D03*
X262500D02*
D03*
X466500Y234000D02*
D03*
X447500D02*
D03*
X487500Y76000D02*
D03*
X468500D02*
D03*
X21500Y522000D02*
D03*
X40500D02*
D03*
X383500Y51000D02*
D03*
X402500D02*
D03*
X241500Y240000D02*
D03*
X260500D02*
D03*
X238500Y346000D02*
D03*
X257500D02*
D03*
X127500Y235000D02*
D03*
X146500D02*
D03*
D67*
X257000Y382000D02*
D03*
X241000D02*
D03*
X257000Y401000D02*
D03*
X241000D02*
D03*
X257000Y425000D02*
D03*
X241000D02*
D03*
X600250Y379250D02*
D03*
X584250D02*
D03*
D68*
X72000Y64500D02*
D03*
Y23500D02*
D03*
X73000Y141500D02*
D03*
Y100500D02*
D03*
D69*
X48745Y214000D02*
D03*
Y207500D02*
D03*
Y201000D02*
D03*
Y194500D02*
D03*
Y188000D02*
D03*
D70*
X46495Y233000D02*
D03*
Y169000D02*
D03*
D71*
X21995Y189000D02*
D03*
Y213000D02*
D03*
X246500Y84750D02*
D03*
D72*
X10000Y269808D02*
D03*
Y294192D02*
D03*
D73*
X603808Y244000D02*
D03*
X628192D02*
D03*
D74*
X174000Y407500D02*
D03*
Y388500D02*
D03*
X218000Y264500D02*
D03*
Y283500D02*
D03*
X608000Y473500D02*
D03*
Y454500D02*
D03*
X581000D02*
D03*
Y473500D02*
D03*
X636000Y431500D02*
D03*
Y412500D02*
D03*
X254000Y142500D02*
D03*
Y161500D02*
D03*
X648000Y243500D02*
D03*
Y224500D02*
D03*
X333000Y66500D02*
D03*
Y85500D02*
D03*
Y66500D02*
D03*
Y47500D02*
D03*
X90000Y263500D02*
D03*
Y282500D02*
D03*
X669000Y206000D02*
D03*
Y187000D02*
D03*
X29000Y271500D02*
D03*
Y290500D02*
D03*
X669000Y224500D02*
D03*
Y243500D02*
D03*
X275000Y67500D02*
D03*
Y48500D02*
D03*
D75*
X278250Y442000D02*
D03*
X297250D02*
D03*
Y419000D02*
D03*
X278250D02*
D03*
X99500Y350000D02*
D03*
X80500D02*
D03*
X107500Y216000D02*
D03*
X88500D02*
D03*
Y194000D02*
D03*
X107500D02*
D03*
Y172000D02*
D03*
X88500D02*
D03*
X391500Y100000D02*
D03*
X372500D02*
D03*
X238500Y443000D02*
D03*
X257500D02*
D03*
X427500Y234000D02*
D03*
X408500D02*
D03*
X581750Y359250D02*
D03*
X600750D02*
D03*
X31500Y253000D02*
D03*
X12500D02*
D03*
X271500Y88000D02*
D03*
X290500D02*
D03*
X128500Y212000D02*
D03*
X147500D02*
D03*
X607500Y227000D02*
D03*
X626500D02*
D03*
D76*
X72000Y211500D02*
D03*
Y226500D02*
D03*
Y182500D02*
D03*
Y197500D02*
D03*
D77*
X290450Y125730D02*
D03*
X315850D02*
D03*
X341250D02*
D03*
X366650D02*
D03*
X392050D02*
D03*
X417450D02*
D03*
X442850D02*
D03*
X468250D02*
D03*
X493650D02*
D03*
X519050D02*
D03*
X544450D02*
D03*
X569850D02*
D03*
X595250D02*
D03*
X620650D02*
D03*
X290450Y201930D02*
D03*
X315850D02*
D03*
X341250D02*
D03*
X366650D02*
D03*
X392050D02*
D03*
X417450D02*
D03*
X442850D02*
D03*
X468250D02*
D03*
X493650D02*
D03*
X519050D02*
D03*
X544450D02*
D03*
X569850D02*
D03*
X595250D02*
D03*
X304800Y25400D02*
D03*
X330200D02*
D03*
X355600D02*
D03*
X381000D02*
D03*
X406400D02*
D03*
X431800D02*
D03*
X457200D02*
D03*
X533400D02*
D03*
X558800D02*
D03*
X584200D02*
D03*
X609600D02*
D03*
X635000D02*
D03*
X609600Y508000D02*
D03*
X584200D02*
D03*
X558800D02*
D03*
X533400D02*
D03*
X508000D02*
D03*
X482600D02*
D03*
X457200D02*
D03*
X187960D02*
D03*
X213360D02*
D03*
X238760D02*
D03*
X264160D02*
D03*
X289560D02*
D03*
X314960D02*
D03*
X340360D02*
D03*
X365760D02*
D03*
X391160D02*
D03*
X141600Y88000D02*
D03*
X167000D02*
D03*
D78*
X620650Y201930D02*
D03*
X279400Y25400D02*
D03*
X508000D02*
D03*
X635000Y508000D02*
D03*
X416560D02*
D03*
X116200Y88000D02*
D03*
D79*
X152400Y508000D02*
D03*
D80*
X660400Y355600D02*
D03*
Y76200D02*
D03*
X139700Y25400D02*
D03*
D81*
X21000Y130000D02*
D03*
Y25000D02*
D03*
D82*
X21995Y234000D02*
D03*
Y168000D02*
D03*
D83*
X662000Y469000D02*
D03*
X146000Y446000D02*
D03*
D84*
X662000Y443600D02*
D03*
Y418200D02*
D03*
X146000Y420600D02*
D03*
Y395200D02*
D03*
Y369800D02*
D03*
D85*
X663000Y308000D02*
D03*
X598000D02*
D03*
Y263000D02*
D03*
X246500Y19750D02*
D03*
X201500D02*
D03*
Y84750D02*
D03*
D86*
X663000Y263000D02*
D03*
M02*
