G04 Layer_Color=16711935*
%FSLAX44Y44*%
%MOMM*%
G71*
G01*
G75*
%ADD48C,1.9000*%
%ADD49R,1.9000X1.9000*%
%ADD71R,2.1000X2.1000*%
%ADD77O,1.8000X2.2000*%
%ADD78R,1.8000X2.2000*%
%ADD79C,3.4000*%
%ADD80C,7.6000*%
%ADD81C,4.2000*%
G04:AMPARAMS|DCode=82|XSize=2.2mm|YSize=1.4mm|CornerRadius=0.46mm|HoleSize=0mm|Usage=FLASHONLY|Rotation=0.000|XOffset=0mm|YOffset=0mm|HoleType=Round|Shape=RoundedRectangle|*
%AMROUNDEDRECTD82*
21,1,2.2000,0.4800,0,0,0.0*
21,1,1.2800,1.4000,0,0,0.0*
1,1,0.9200,0.6400,-0.2400*
1,1,0.9200,-0.6400,-0.2400*
1,1,0.9200,-0.6400,0.2400*
1,1,0.9200,0.6400,0.2400*
%
%ADD82ROUNDEDRECTD82*%
%ADD83R,2.2000X1.8000*%
%ADD84O,2.2000X1.8000*%
%ADD85C,2.1000*%
%ADD86R,2.1000X2.1000*%
G36*
X359851Y363691D02*
X360200D01*
Y363341D01*
Y362992D01*
X360550D01*
Y362642D01*
Y362292D01*
X360900D01*
Y361942D01*
Y361592D01*
X361250D01*
Y361243D01*
Y360893D01*
X361600D01*
Y360543D01*
Y360193D01*
X361949D01*
Y359843D01*
Y359494D01*
X362299D01*
Y359144D01*
Y358794D01*
X362649D01*
Y358444D01*
Y358094D01*
Y357745D01*
X362999D01*
Y357395D01*
X363349D01*
Y357045D01*
X367196D01*
Y357395D01*
X371394D01*
Y357045D01*
X375941D01*
Y357395D01*
X376291D01*
Y357745D01*
X376641D01*
Y358094D01*
Y358444D01*
X376991D01*
Y358794D01*
Y359144D01*
X377341D01*
Y359494D01*
Y359843D01*
X377690D01*
Y360193D01*
Y360543D01*
Y360893D01*
X378040D01*
Y361243D01*
Y361592D01*
X378390D01*
Y361942D01*
Y362292D01*
X378740D01*
Y362642D01*
Y362992D01*
X379090D01*
Y363341D01*
Y363691D01*
X379789D01*
Y363341D01*
Y362992D01*
X380139D01*
Y362642D01*
Y362292D01*
Y361942D01*
Y361592D01*
Y361243D01*
X380489D01*
Y360893D01*
Y360543D01*
Y360193D01*
Y359843D01*
Y359494D01*
Y359144D01*
Y358794D01*
Y358444D01*
X380839D01*
Y358094D01*
Y357745D01*
Y357395D01*
Y357045D01*
Y356695D01*
Y356345D01*
Y355996D01*
Y355646D01*
Y355296D01*
Y354946D01*
Y354596D01*
Y354247D01*
X381188D01*
Y353897D01*
Y353547D01*
Y353197D01*
Y352848D01*
Y352498D01*
Y352148D01*
Y351798D01*
Y351448D01*
Y351098D01*
Y350749D01*
Y350399D01*
Y350049D01*
X381538D01*
Y349699D01*
Y349349D01*
Y349000D01*
Y348650D01*
Y348300D01*
Y347950D01*
Y347600D01*
Y347251D01*
Y346901D01*
X381888D01*
Y346551D01*
Y346201D01*
Y345852D01*
Y345502D01*
Y345152D01*
X382238D01*
Y344802D01*
Y344452D01*
Y344102D01*
Y343753D01*
X382588D01*
Y343403D01*
Y343053D01*
Y342703D01*
Y342353D01*
X382937D01*
Y342004D01*
Y341654D01*
X383287D01*
Y341304D01*
Y340954D01*
X383637D01*
Y340605D01*
Y340255D01*
X383987D01*
Y339905D01*
Y339555D01*
X384337D01*
Y339205D01*
Y338856D01*
X384686D01*
Y338506D01*
Y338156D01*
X385036D01*
Y337806D01*
X385386D01*
Y337456D01*
X385736D01*
Y337107D01*
Y336757D01*
X386086D01*
Y336407D01*
X386435D01*
Y336057D01*
Y335707D01*
X386785D01*
Y335357D01*
X387135D01*
Y335008D01*
X387485D01*
Y334658D01*
X387835D01*
Y334308D01*
X388184D01*
Y333958D01*
X388884D01*
Y333609D01*
X389234D01*
Y333259D01*
X389933D01*
Y332909D01*
X390283D01*
Y332559D01*
X391333D01*
Y332209D01*
X392732D01*
Y331860D01*
X399728D01*
Y332209D01*
X401477D01*
Y332559D01*
X402876D01*
Y332909D01*
X403925D01*
Y333259D01*
X404625D01*
Y333609D01*
X405674D01*
Y333958D01*
X406374D01*
Y334308D01*
X407074D01*
Y334658D01*
X407773D01*
Y335008D01*
X408123D01*
Y335357D01*
X408473D01*
Y335707D01*
X409172D01*
Y336057D01*
X409522D01*
Y336407D01*
X409872D01*
Y336757D01*
X410222D01*
Y337107D01*
X410572D01*
Y337456D01*
X410921D01*
Y337806D01*
X411271D01*
Y338156D01*
X411621D01*
Y338506D01*
X411971D01*
Y338856D01*
Y339205D01*
X412321D01*
Y339555D01*
X412670D01*
Y339905D01*
Y340255D01*
X413020D01*
Y340605D01*
Y340954D01*
Y341304D01*
X413370D01*
Y341654D01*
Y342004D01*
Y342353D01*
X413720D01*
Y342703D01*
Y343053D01*
Y343403D01*
Y343753D01*
Y344102D01*
Y344452D01*
Y344802D01*
Y345152D01*
Y345502D01*
Y345852D01*
Y346201D01*
Y346551D01*
Y346901D01*
Y347251D01*
Y347600D01*
X413370D01*
Y347950D01*
Y348300D01*
Y348650D01*
Y349000D01*
X413020D01*
Y349349D01*
Y349699D01*
Y350049D01*
X412670D01*
Y350399D01*
Y350749D01*
Y351098D01*
X412321D01*
Y351448D01*
Y351798D01*
X411971D01*
Y352148D01*
Y352498D01*
X411621D01*
Y352848D01*
X411271D01*
Y353197D01*
Y353547D01*
X410921D01*
Y353897D01*
Y354247D01*
X410572D01*
Y354596D01*
X410222D01*
Y354946D01*
Y355296D01*
X409872D01*
Y355646D01*
X409522D01*
Y355996D01*
Y356345D01*
X409172D01*
Y356695D01*
X408823D01*
Y357045D01*
X408473D01*
Y357395D01*
Y357745D01*
X408123D01*
Y358094D01*
X407773D01*
Y358444D01*
X407423D01*
Y358794D01*
X407074D01*
Y359144D01*
X406724D01*
Y359494D01*
X406374D01*
Y359843D01*
X406024D01*
Y360193D01*
X405674D01*
Y360543D01*
X406724D01*
Y360193D01*
X407773D01*
Y359843D01*
X409172D01*
Y359494D01*
X410222D01*
Y359144D01*
X411621D01*
Y358794D01*
X413020D01*
Y358444D01*
X414070D01*
Y358094D01*
X415119D01*
Y357745D01*
X416518D01*
Y357395D01*
X417567D01*
Y357045D01*
X418617D01*
Y356695D01*
X419666D01*
Y356345D01*
X421065D01*
Y355996D01*
X421765D01*
Y355646D01*
X422814D01*
Y355296D01*
X423864D01*
Y354946D01*
X424563D01*
Y354596D01*
X425613D01*
Y354247D01*
X426662D01*
Y353897D01*
X427712D01*
Y353547D01*
X428411D01*
Y353197D01*
X429111D01*
Y352848D01*
X430160D01*
Y352498D01*
X430860D01*
Y352148D01*
X431559D01*
Y351798D01*
X432609D01*
Y351448D01*
X433308D01*
Y351098D01*
X434008D01*
Y350749D01*
X434708D01*
Y350399D01*
X435407D01*
Y350049D01*
X436107D01*
Y349699D01*
X436806D01*
Y349349D01*
X437506D01*
Y349000D01*
X438206D01*
Y348650D01*
X438905D01*
Y348300D01*
X439605D01*
Y347950D01*
X439955D01*
Y347600D01*
X440654D01*
Y347251D01*
X441354D01*
Y346901D01*
X442053D01*
Y346551D01*
X442403D01*
Y346201D01*
X443103D01*
Y345852D01*
X443802D01*
Y345502D01*
X444152D01*
Y345152D01*
X444852D01*
Y344802D01*
X445202D01*
Y344452D01*
X445901D01*
Y344102D01*
X446251D01*
Y343753D01*
X446951D01*
Y343403D01*
X447300D01*
Y343053D01*
X447650D01*
Y342703D01*
X448350D01*
Y342353D01*
X448700D01*
Y342004D01*
X449399D01*
Y341654D01*
X449749D01*
Y341304D01*
X450099D01*
Y340954D01*
X450798D01*
Y340605D01*
X451148D01*
Y340255D01*
X451498D01*
Y339905D01*
X451848D01*
Y339555D01*
X452198D01*
Y339205D01*
X452897D01*
Y338856D01*
X453247D01*
Y338506D01*
X453597D01*
Y338156D01*
X453947D01*
Y337806D01*
X454296D01*
Y337456D01*
X454646D01*
Y337107D01*
X454996D01*
Y336757D01*
X455346D01*
Y336407D01*
X455696D01*
Y336057D01*
X456045D01*
Y335707D01*
X456395D01*
Y335357D01*
X456745D01*
Y335008D01*
X457095D01*
Y334658D01*
X457445D01*
Y334308D01*
Y333958D01*
X457794D01*
Y333609D01*
X458144D01*
Y333259D01*
X458494D01*
Y332909D01*
X458844D01*
Y332559D01*
X459194D01*
Y332209D01*
Y331860D01*
X459543D01*
Y331510D01*
X459893D01*
Y331160D01*
X460243D01*
Y330810D01*
Y330460D01*
X460593D01*
Y330111D01*
X460943D01*
Y329761D01*
Y329411D01*
X461292D01*
Y329061D01*
X461642D01*
Y328711D01*
Y328362D01*
X461992D01*
Y328012D01*
Y327662D01*
X462342D01*
Y327312D01*
Y326962D01*
X462692D01*
Y326613D01*
X463041D01*
Y326263D01*
Y325913D01*
X463391D01*
Y325563D01*
Y325213D01*
Y324864D01*
X463741D01*
Y324514D01*
Y324164D01*
X464091D01*
Y323814D01*
Y323464D01*
Y323115D01*
X464441D01*
Y322765D01*
Y322415D01*
Y322065D01*
X464790D01*
Y321715D01*
Y321366D01*
Y321016D01*
Y320666D01*
X465140D01*
Y320316D01*
Y319966D01*
Y319617D01*
Y319267D01*
Y318917D01*
Y318567D01*
X465490D01*
Y318217D01*
Y317868D01*
Y317518D01*
Y317168D01*
Y316818D01*
Y316468D01*
Y316119D01*
Y315769D01*
Y315419D01*
Y315069D01*
Y314719D01*
Y314370D01*
X465140D01*
Y314020D01*
Y313670D01*
Y313320D01*
Y312970D01*
Y312621D01*
Y312271D01*
Y311921D01*
X464790D01*
Y311571D01*
Y311221D01*
Y310872D01*
Y310522D01*
X464441D01*
Y310172D01*
Y309822D01*
Y309472D01*
Y309123D01*
X464091D01*
Y308773D01*
Y308423D01*
Y308073D01*
X463741D01*
Y307723D01*
Y307374D01*
Y307024D01*
X463391D01*
Y306674D01*
Y306324D01*
X463041D01*
Y305974D01*
Y305625D01*
X462692D01*
Y305275D01*
Y304925D01*
Y304575D01*
X462342D01*
Y304225D01*
Y303876D01*
X461992D01*
Y303526D01*
Y303176D01*
X461642D01*
Y302826D01*
X461292D01*
Y302476D01*
Y302127D01*
X460943D01*
Y301777D01*
Y301427D01*
X460593D01*
Y301077D01*
Y300727D01*
X460243D01*
Y300378D01*
X459893D01*
Y300028D01*
Y299678D01*
X459543D01*
Y299328D01*
X459194D01*
Y298978D01*
X458844D01*
Y298629D01*
Y298279D01*
X458494D01*
Y297929D01*
X458144D01*
Y297579D01*
Y297229D01*
X457794D01*
Y296880D01*
X457445D01*
Y296530D01*
X457095D01*
Y296180D01*
X456745D01*
Y295830D01*
Y295480D01*
X456395D01*
Y295131D01*
X456045D01*
Y294781D01*
X455696D01*
Y294431D01*
X455346D01*
Y294081D01*
X454996D01*
Y293731D01*
X454646D01*
Y293382D01*
X454296D01*
Y293032D01*
X453947D01*
Y292682D01*
X453597D01*
Y292332D01*
X453247D01*
Y291982D01*
X452897D01*
Y291632D01*
X452547D01*
Y291283D01*
X452198D01*
Y290933D01*
X451848D01*
Y290583D01*
X451498D01*
Y290233D01*
X451148D01*
Y289883D01*
X450449D01*
Y289534D01*
X450099D01*
Y289184D01*
X449749D01*
Y288834D01*
X449049D01*
Y288484D01*
X448700D01*
Y288135D01*
X448350D01*
Y287785D01*
X448000D01*
Y287435D01*
X447300D01*
Y287085D01*
X446951D01*
Y286735D01*
X446251D01*
Y286386D01*
X445901D01*
Y286036D01*
X445202D01*
Y285686D01*
X444852D01*
Y285336D01*
X444152D01*
Y284986D01*
X443802D01*
Y284637D01*
X443103D01*
Y284287D01*
X442753D01*
Y283937D01*
X442053D01*
Y283587D01*
X441354D01*
Y283237D01*
X441004D01*
Y282887D01*
X440304D01*
Y282538D01*
X439605D01*
Y282188D01*
X438905D01*
Y281838D01*
X438555D01*
Y281488D01*
X437856D01*
Y281139D01*
X437156D01*
Y280789D01*
X436457D01*
Y280439D01*
X435757D01*
Y280089D01*
X435057D01*
Y279739D01*
X434358D01*
Y279390D01*
X433308D01*
Y279040D01*
X432609D01*
Y278690D01*
X431909D01*
Y278340D01*
X430860D01*
Y277990D01*
X430160D01*
Y277641D01*
X429111D01*
Y277291D01*
X428411D01*
Y276941D01*
X427362D01*
Y276591D01*
X426662D01*
Y276241D01*
X425613D01*
Y275892D01*
X424563D01*
Y275542D01*
X423864D01*
Y275192D01*
X422814D01*
Y274842D01*
X421765D01*
Y274492D01*
X420716D01*
Y274143D01*
X419666D01*
Y273793D01*
X419316D01*
Y274143D01*
Y274492D01*
X419666D01*
Y274842D01*
X420016D01*
Y275192D01*
X420366D01*
Y275542D01*
X420716D01*
Y275892D01*
X421065D01*
Y276241D01*
X421415D01*
Y276591D01*
X421765D01*
Y276941D01*
Y277291D01*
X422115D01*
Y277641D01*
X422465D01*
Y277990D01*
X422814D01*
Y278340D01*
X423164D01*
Y278690D01*
X423514D01*
Y279040D01*
Y279390D01*
X423864D01*
Y279739D01*
X424214D01*
Y280089D01*
X424563D01*
Y280439D01*
Y280789D01*
X424913D01*
Y281139D01*
X425263D01*
Y281488D01*
X425613D01*
Y281838D01*
Y282188D01*
X425963D01*
Y282538D01*
Y282887D01*
X426312D01*
Y283237D01*
X426662D01*
Y283587D01*
Y283937D01*
X427012D01*
Y284287D01*
Y284637D01*
X427362D01*
Y284986D01*
Y285336D01*
X427712D01*
Y285686D01*
Y286036D01*
X428061D01*
Y286386D01*
Y286735D01*
X428411D01*
Y287085D01*
Y287435D01*
X428761D01*
Y287785D01*
Y288135D01*
Y288484D01*
X429111D01*
Y288834D01*
Y289184D01*
Y289534D01*
X429461D01*
Y289883D01*
Y290233D01*
Y290583D01*
X429810D01*
Y290933D01*
Y291283D01*
Y291632D01*
Y291982D01*
Y292332D01*
Y292682D01*
X430160D01*
Y293032D01*
Y293382D01*
Y293731D01*
Y294081D01*
Y294431D01*
Y294781D01*
Y295131D01*
Y295480D01*
Y295830D01*
Y296180D01*
Y296530D01*
Y296880D01*
Y297229D01*
Y297579D01*
Y297929D01*
X429810D01*
Y298279D01*
Y298629D01*
Y298978D01*
Y299328D01*
X429461D01*
Y299678D01*
Y300028D01*
Y300378D01*
X429111D01*
Y300727D01*
Y301077D01*
X428761D01*
Y301427D01*
X428411D01*
Y301777D01*
Y302127D01*
X428061D01*
Y302476D01*
X427712D01*
Y302826D01*
X427362D01*
Y303176D01*
X427012D01*
Y303526D01*
X426662D01*
Y303876D01*
X425963D01*
Y304225D01*
X425263D01*
Y304575D01*
X424563D01*
Y304925D01*
X423164D01*
Y305275D01*
X417218D01*
Y304925D01*
X416168D01*
Y304575D01*
X414769D01*
Y304225D01*
X413720D01*
Y303876D01*
X413020D01*
Y303526D01*
X411971D01*
Y303176D01*
X411271D01*
Y302826D01*
X410572D01*
Y302476D01*
X409872D01*
Y302127D01*
X409172D01*
Y301777D01*
X408473D01*
Y301427D01*
X407773D01*
Y301077D01*
X407423D01*
Y300727D01*
X406724D01*
Y300378D01*
X406374D01*
Y300028D01*
X405674D01*
Y299678D01*
X405325D01*
Y299328D01*
X404625D01*
Y298978D01*
X404275D01*
Y298629D01*
X403925D01*
Y298279D01*
X403576D01*
Y297929D01*
X402876D01*
Y297579D01*
X402526D01*
Y297229D01*
X402176D01*
Y296880D01*
X401477D01*
Y296530D01*
X401127D01*
Y296180D01*
X400777D01*
Y295830D01*
X400427D01*
Y295480D01*
X400078D01*
Y295131D01*
X399728D01*
Y294781D01*
X399028D01*
Y294431D01*
X398329D01*
Y294781D01*
X397979D01*
Y295131D01*
Y295480D01*
X397629D01*
Y295830D01*
X397279D01*
Y296180D01*
Y296530D01*
X396929D01*
Y296880D01*
X396580D01*
Y297229D01*
Y297579D01*
X396230D01*
Y297929D01*
X395880D01*
Y298279D01*
X395530D01*
Y298629D01*
X395180D01*
Y298978D01*
X394831D01*
Y299328D01*
X394481D01*
Y299678D01*
X394131D01*
Y300028D01*
X393431D01*
Y300378D01*
X392732D01*
Y300727D01*
X391682D01*
Y301077D01*
X389584D01*
Y300727D01*
X388534D01*
Y300378D01*
X387485D01*
Y300028D01*
X387135D01*
Y299678D01*
X386435D01*
Y299328D01*
X386086D01*
Y298978D01*
X385386D01*
Y298629D01*
X385036D01*
Y298279D01*
X384686D01*
Y297929D01*
X384337D01*
Y297579D01*
X383987D01*
Y297229D01*
Y296880D01*
X383637D01*
Y296530D01*
X383287D01*
Y296180D01*
X382937D01*
Y295830D01*
X382588D01*
Y295480D01*
Y295131D01*
X382238D01*
Y294781D01*
X381888D01*
Y294431D01*
X381538D01*
Y294081D01*
Y293731D01*
X381188D01*
Y293382D01*
X380839D01*
Y293032D01*
Y292682D01*
X380489D01*
Y292332D01*
X380139D01*
Y291982D01*
Y291632D01*
X379789D01*
Y291283D01*
X379439D01*
Y290933D01*
Y290583D01*
X379090D01*
Y290233D01*
Y289883D01*
X378740D01*
Y289534D01*
X378390D01*
Y289184D01*
Y288834D01*
X378040D01*
Y288484D01*
Y288135D01*
X377690D01*
Y287785D01*
X377341D01*
Y287435D01*
Y287085D01*
X376991D01*
Y286735D01*
Y286386D01*
X376641D01*
Y286036D01*
Y285686D01*
X376291D01*
Y285336D01*
X375941D01*
Y284986D01*
Y284637D01*
X375592D01*
Y284287D01*
Y283937D01*
X375242D01*
Y283587D01*
Y283237D01*
X374892D01*
Y282887D01*
Y282538D01*
X374542D01*
Y282188D01*
X374192D01*
Y281838D01*
Y281488D01*
X373843D01*
Y281139D01*
Y280789D01*
X373493D01*
Y280439D01*
Y280089D01*
X373143D01*
Y279739D01*
Y279390D01*
X372793D01*
Y279040D01*
Y278690D01*
X372443D01*
Y278340D01*
X372094D01*
Y277990D01*
Y277641D01*
X371744D01*
Y277291D01*
Y276941D01*
X371394D01*
Y276591D01*
Y276241D01*
X371044D01*
Y275892D01*
Y275542D01*
X370694D01*
Y275192D01*
Y274842D01*
X370345D01*
Y274492D01*
X369995D01*
Y274143D01*
Y273793D01*
X369295D01*
Y274143D01*
Y274492D01*
X368945D01*
Y274842D01*
Y275192D01*
X368596D01*
Y275542D01*
Y275892D01*
X368246D01*
Y276241D01*
X367896D01*
Y276591D01*
Y276941D01*
X367546D01*
Y277291D01*
Y277641D01*
X367196D01*
Y277990D01*
Y278340D01*
X366847D01*
Y278690D01*
Y279040D01*
X366497D01*
Y279390D01*
Y279739D01*
X366147D01*
Y280089D01*
Y280439D01*
X365797D01*
Y280789D01*
Y281139D01*
X365447D01*
Y281488D01*
Y281838D01*
X365098D01*
Y282188D01*
X364748D01*
Y282538D01*
Y282887D01*
X364398D01*
Y283237D01*
Y283587D01*
X364048D01*
Y283937D01*
Y284287D01*
X363699D01*
Y284637D01*
Y284986D01*
X363349D01*
Y285336D01*
Y285686D01*
X362999D01*
Y286036D01*
X362649D01*
Y286386D01*
Y286735D01*
X362299D01*
Y287085D01*
Y287435D01*
X361949D01*
Y287785D01*
X361600D01*
Y288135D01*
Y288484D01*
X361250D01*
Y288834D01*
Y289184D01*
X360900D01*
Y289534D01*
Y289883D01*
X360550D01*
Y290233D01*
X360200D01*
Y290583D01*
Y290933D01*
X359851D01*
Y291283D01*
X359501D01*
Y291632D01*
Y291982D01*
X359151D01*
Y292332D01*
X358801D01*
Y292682D01*
Y293032D01*
X358451D01*
Y293382D01*
X358102D01*
Y293731D01*
Y294081D01*
X357752D01*
Y294431D01*
X357402D01*
Y294781D01*
Y295131D01*
X357052D01*
Y295480D01*
X356702D01*
Y295830D01*
X356353D01*
Y296180D01*
X356003D01*
Y296530D01*
Y296880D01*
X355653D01*
Y297229D01*
X355303D01*
Y297579D01*
X354953D01*
Y297929D01*
X354604D01*
Y298279D01*
X354254D01*
Y298629D01*
X353904D01*
Y298978D01*
X353204D01*
Y299328D01*
X352855D01*
Y299678D01*
X352505D01*
Y300028D01*
X351805D01*
Y300378D01*
X351106D01*
Y300727D01*
X349706D01*
Y301077D01*
X346908D01*
Y300727D01*
X346558D01*
Y300378D01*
X345859D01*
Y300028D01*
X345509D01*
Y299678D01*
X344809D01*
Y299328D01*
X344459D01*
Y298978D01*
X344110D01*
Y298629D01*
X343760D01*
Y298279D01*
X343410D01*
Y297929D01*
Y297579D01*
X343060D01*
Y297229D01*
X342710D01*
Y296880D01*
X342361D01*
Y296530D01*
Y296180D01*
X342011D01*
Y295830D01*
X341661D01*
Y295480D01*
Y295131D01*
X341311D01*
Y294781D01*
Y294431D01*
X340961D01*
Y294081D01*
X340612D01*
Y294431D01*
X340262D01*
Y294781D01*
X339912D01*
Y295131D01*
X339562D01*
Y295480D01*
X338863D01*
Y295830D01*
X338513D01*
Y296180D01*
X338163D01*
Y296530D01*
X337813D01*
Y296880D01*
X337463D01*
Y297229D01*
X336764D01*
Y297579D01*
X336414D01*
Y297929D01*
X336064D01*
Y298279D01*
X335714D01*
Y298629D01*
X335015D01*
Y298978D01*
X334665D01*
Y299328D01*
X333965D01*
Y299678D01*
X333616D01*
Y300028D01*
X332916D01*
Y300378D01*
X332566D01*
Y300727D01*
X331867D01*
Y301077D01*
X331517D01*
Y301427D01*
X330817D01*
Y301777D01*
X330118D01*
Y302127D01*
X329768D01*
Y302476D01*
X329068D01*
Y302826D01*
X328369D01*
Y303176D01*
X327669D01*
Y303526D01*
X326620D01*
Y303876D01*
X325920D01*
Y304225D01*
X324871D01*
Y304575D01*
X323821D01*
Y304925D01*
X322422D01*
Y305275D01*
X315776D01*
Y304925D01*
X314727D01*
Y304575D01*
X314027D01*
Y304225D01*
X312978D01*
Y303876D01*
X312628D01*
Y303526D01*
X312278D01*
Y303176D01*
X311928D01*
Y302826D01*
X311578D01*
Y302476D01*
X311229D01*
Y302127D01*
X310879D01*
Y301777D01*
Y301427D01*
X310529D01*
Y301077D01*
Y300727D01*
X310179D01*
Y300378D01*
Y300028D01*
X309829D01*
Y299678D01*
Y299328D01*
X309480D01*
Y298978D01*
Y298629D01*
Y298279D01*
X309130D01*
Y297929D01*
Y297579D01*
Y297229D01*
Y296880D01*
Y296530D01*
Y296180D01*
Y295830D01*
Y295480D01*
Y295131D01*
Y294781D01*
Y294431D01*
Y294081D01*
Y293731D01*
Y293382D01*
Y293032D01*
X309480D01*
Y292682D01*
Y292332D01*
Y291982D01*
Y291632D01*
Y291283D01*
Y290933D01*
X309829D01*
Y290583D01*
Y290233D01*
Y289883D01*
X310179D01*
Y289534D01*
Y289184D01*
Y288834D01*
X310529D01*
Y288484D01*
Y288135D01*
Y287785D01*
X310879D01*
Y287435D01*
Y287085D01*
X311229D01*
Y286735D01*
Y286386D01*
Y286036D01*
X311578D01*
Y285686D01*
Y285336D01*
X311928D01*
Y284986D01*
Y284637D01*
X312278D01*
Y284287D01*
Y283937D01*
X312628D01*
Y283587D01*
X312978D01*
Y283237D01*
Y282887D01*
X313327D01*
Y282538D01*
Y282188D01*
X313677D01*
Y281838D01*
X314027D01*
Y281488D01*
Y281139D01*
X314377D01*
Y280789D01*
X314727D01*
Y280439D01*
X315076D01*
Y280089D01*
Y279739D01*
X315426D01*
Y279390D01*
X315776D01*
Y279040D01*
Y278690D01*
X316126D01*
Y278340D01*
X316476D01*
Y277990D01*
X316825D01*
Y277641D01*
X317175D01*
Y277291D01*
X317525D01*
Y276941D01*
Y276591D01*
X317875D01*
Y276241D01*
X318225D01*
Y275892D01*
X318574D01*
Y275542D01*
X318924D01*
Y275192D01*
X319274D01*
Y274842D01*
X319624D01*
Y274492D01*
X319974D01*
Y274143D01*
X320323D01*
Y273793D01*
X319974D01*
Y274143D01*
X318924D01*
Y274492D01*
X317525D01*
Y274842D01*
X316476D01*
Y275192D01*
X315776D01*
Y275542D01*
X314727D01*
Y275892D01*
X313677D01*
Y276241D01*
X312978D01*
Y276591D01*
X311928D01*
Y276941D01*
X311229D01*
Y277291D01*
X310179D01*
Y277641D01*
X309130D01*
Y277990D01*
X308430D01*
Y278340D01*
X307731D01*
Y278690D01*
X307031D01*
Y279040D01*
X305982D01*
Y279390D01*
X305282D01*
Y279739D01*
X304582D01*
Y280089D01*
X303883D01*
Y280439D01*
X303183D01*
Y280789D01*
X302484D01*
Y281139D01*
X301784D01*
Y281488D01*
X301084D01*
Y281838D01*
X300385D01*
Y282188D01*
X299685D01*
Y282538D01*
X298986D01*
Y282887D01*
X298636D01*
Y283237D01*
X297936D01*
Y283587D01*
X297237D01*
Y283937D01*
X296537D01*
Y284287D01*
X296187D01*
Y284637D01*
X295488D01*
Y284986D01*
X295138D01*
Y285336D01*
X294438D01*
Y285686D01*
X294088D01*
Y286036D01*
X293389D01*
Y286386D01*
X293039D01*
Y286735D01*
X292339D01*
Y287085D01*
X291990D01*
Y287435D01*
X291290D01*
Y287785D01*
X290940D01*
Y288135D01*
X290590D01*
Y288484D01*
X290241D01*
Y288834D01*
X289541D01*
Y289184D01*
X289191D01*
Y289534D01*
X288841D01*
Y289883D01*
X288492D01*
Y290233D01*
X288142D01*
Y290583D01*
X287442D01*
Y290933D01*
X287092D01*
Y291283D01*
X286743D01*
Y291632D01*
X286393D01*
Y291982D01*
X286043D01*
Y292332D01*
X285693D01*
Y292682D01*
X285343D01*
Y293032D01*
X284994D01*
Y293382D01*
X284644D01*
Y293731D01*
X284294D01*
Y294081D01*
X283944D01*
Y294431D01*
X283594D01*
Y294781D01*
Y295131D01*
X283245D01*
Y295480D01*
X282895D01*
Y295830D01*
X282545D01*
Y296180D01*
X282195D01*
Y296530D01*
X281845D01*
Y296880D01*
Y297229D01*
X281496D01*
Y297579D01*
X281146D01*
Y297929D01*
X280796D01*
Y298279D01*
Y298629D01*
X280446D01*
Y298978D01*
X280096D01*
Y299328D01*
X279747D01*
Y299678D01*
Y300028D01*
X279397D01*
Y300378D01*
X279047D01*
Y300727D01*
Y301077D01*
X278697D01*
Y301427D01*
Y301777D01*
X278347D01*
Y302127D01*
X277998D01*
Y302476D01*
Y302826D01*
X277648D01*
Y303176D01*
Y303526D01*
X277298D01*
Y303876D01*
Y304225D01*
X276948D01*
Y304575D01*
Y304925D01*
X276598D01*
Y305275D01*
Y305625D01*
X276249D01*
Y305974D01*
Y306324D01*
X275899D01*
Y306674D01*
Y307024D01*
Y307374D01*
X275549D01*
Y307723D01*
Y308073D01*
Y308423D01*
X275199D01*
Y308773D01*
Y309123D01*
Y309472D01*
X274849D01*
Y309822D01*
Y310172D01*
Y310522D01*
Y310872D01*
X274500D01*
Y311221D01*
Y311571D01*
Y311921D01*
Y312271D01*
Y312621D01*
X274150D01*
Y312970D01*
Y313320D01*
Y313670D01*
Y314020D01*
Y314370D01*
Y314719D01*
Y315069D01*
Y315419D01*
X273800D01*
Y315769D01*
Y316119D01*
X274150D01*
Y316468D01*
Y316818D01*
Y317168D01*
Y317518D01*
Y317868D01*
Y318217D01*
Y318567D01*
Y318917D01*
Y319267D01*
Y319617D01*
Y319966D01*
X274500D01*
Y320316D01*
Y320666D01*
Y321016D01*
Y321366D01*
Y321715D01*
X274849D01*
Y322065D01*
Y322415D01*
Y322765D01*
X275199D01*
Y323115D01*
Y323464D01*
Y323814D01*
X275549D01*
Y324164D01*
Y324514D01*
X275899D01*
Y324864D01*
Y325213D01*
Y325563D01*
X276249D01*
Y325913D01*
Y326263D01*
X276598D01*
Y326613D01*
Y326962D01*
X276948D01*
Y327312D01*
Y327662D01*
X277298D01*
Y328012D01*
X277648D01*
Y328362D01*
Y328711D01*
X277998D01*
Y329061D01*
Y329411D01*
X278347D01*
Y329761D01*
X278697D01*
Y330111D01*
Y330460D01*
X279047D01*
Y330810D01*
X279397D01*
Y331160D01*
Y331510D01*
X279747D01*
Y331860D01*
X280096D01*
Y332209D01*
X280446D01*
Y332559D01*
Y332909D01*
X280796D01*
Y333259D01*
X281146D01*
Y333609D01*
X281496D01*
Y333958D01*
X281845D01*
Y334308D01*
X282195D01*
Y334658D01*
X282545D01*
Y335008D01*
Y335357D01*
X282895D01*
Y335707D01*
X283245D01*
Y336057D01*
X283594D01*
Y336407D01*
X283944D01*
Y336757D01*
X284294D01*
Y337107D01*
X284994D01*
Y337456D01*
X285343D01*
Y337806D01*
X285693D01*
Y338156D01*
X286043D01*
Y338506D01*
X286393D01*
Y338856D01*
X286743D01*
Y339205D01*
X287092D01*
Y339555D01*
X287442D01*
Y339905D01*
X288142D01*
Y340255D01*
X288492D01*
Y340605D01*
X288841D01*
Y340954D01*
X289191D01*
Y341304D01*
X289541D01*
Y341654D01*
X290241D01*
Y342004D01*
X290590D01*
Y342353D01*
X290940D01*
Y342703D01*
X291640D01*
Y343053D01*
X291990D01*
Y343403D01*
X292689D01*
Y343753D01*
X293039D01*
Y344102D01*
X293389D01*
Y344452D01*
X294088D01*
Y344802D01*
X294788D01*
Y345152D01*
X295138D01*
Y345502D01*
X295837D01*
Y345852D01*
X296187D01*
Y346201D01*
X296887D01*
Y346551D01*
X297586D01*
Y346901D01*
X297936D01*
Y347251D01*
X298636D01*
Y347600D01*
X299335D01*
Y347950D01*
X300035D01*
Y348300D01*
X300385D01*
Y348650D01*
X301084D01*
Y349000D01*
X301784D01*
Y349349D01*
X302484D01*
Y349699D01*
X303183D01*
Y350049D01*
X303883D01*
Y350399D01*
X304582D01*
Y350749D01*
X305282D01*
Y351098D01*
X305982D01*
Y351448D01*
X307031D01*
Y351798D01*
X307731D01*
Y352148D01*
X308430D01*
Y352498D01*
X309480D01*
Y352848D01*
X310179D01*
Y353197D01*
X311229D01*
Y353547D01*
X311928D01*
Y353897D01*
X312628D01*
Y354247D01*
X313677D01*
Y354596D01*
X314727D01*
Y354946D01*
X315776D01*
Y355296D01*
X316476D01*
Y355646D01*
X317525D01*
Y355996D01*
X318574D01*
Y356345D01*
X319624D01*
Y356695D01*
X320673D01*
Y357045D01*
X321722D01*
Y357395D01*
X323122D01*
Y357745D01*
X324171D01*
Y358094D01*
X325220D01*
Y358444D01*
X326620D01*
Y358794D01*
X327669D01*
Y359144D01*
X329068D01*
Y359494D01*
X330118D01*
Y359843D01*
X331517D01*
Y360193D01*
X332916D01*
Y360543D01*
X333616D01*
Y360193D01*
X333266D01*
Y359843D01*
X332916D01*
Y359494D01*
X332566D01*
Y359144D01*
X332216D01*
Y358794D01*
X331867D01*
Y358444D01*
Y358094D01*
X331517D01*
Y357745D01*
X331167D01*
Y357395D01*
X330817D01*
Y357045D01*
X330467D01*
Y356695D01*
Y356345D01*
X330118D01*
Y355996D01*
X329768D01*
Y355646D01*
X329418D01*
Y355296D01*
Y354946D01*
X329068D01*
Y354596D01*
X328718D01*
Y354247D01*
Y353897D01*
X328369D01*
Y353547D01*
X328019D01*
Y353197D01*
Y352848D01*
X327669D01*
Y352498D01*
Y352148D01*
X327319D01*
Y351798D01*
Y351448D01*
X326969D01*
Y351098D01*
Y350749D01*
X326620D01*
Y350399D01*
Y350049D01*
X326270D01*
Y349699D01*
Y349349D01*
Y349000D01*
X325920D01*
Y348650D01*
Y348300D01*
Y347950D01*
Y347600D01*
X325570D01*
Y347251D01*
Y346901D01*
Y346551D01*
Y346201D01*
Y345852D01*
Y345502D01*
Y345152D01*
Y344802D01*
Y344452D01*
Y344102D01*
Y343753D01*
Y343403D01*
Y343053D01*
Y342703D01*
X325920D01*
Y342353D01*
Y342004D01*
Y341654D01*
X326270D01*
Y341304D01*
Y340954D01*
Y340605D01*
X326620D01*
Y340255D01*
Y339905D01*
X326969D01*
Y339555D01*
Y339205D01*
X327319D01*
Y338856D01*
X327669D01*
Y338506D01*
Y338156D01*
X328019D01*
Y337806D01*
X328369D01*
Y337456D01*
X328718D01*
Y337107D01*
X329068D01*
Y336757D01*
X329418D01*
Y336407D01*
X329768D01*
Y336057D01*
X330118D01*
Y335707D01*
X330817D01*
Y335357D01*
X331167D01*
Y335008D01*
X331867D01*
Y334658D01*
X332566D01*
Y334308D01*
X333266D01*
Y333958D01*
X333616D01*
Y333609D01*
X334665D01*
Y333259D01*
X335714D01*
Y332909D01*
X336414D01*
Y332559D01*
X338163D01*
Y332209D01*
X339912D01*
Y331860D01*
X346558D01*
Y332209D01*
X347957D01*
Y332559D01*
X349007D01*
Y332909D01*
X349706D01*
Y333259D01*
X350056D01*
Y333609D01*
X350756D01*
Y333958D01*
X351106D01*
Y334308D01*
X351455D01*
Y334658D01*
X351805D01*
Y335008D01*
X352155D01*
Y335357D01*
X352505D01*
Y335707D01*
X352855D01*
Y336057D01*
X353204D01*
Y336407D01*
X353554D01*
Y336757D01*
Y337107D01*
X353904D01*
Y337456D01*
X354254D01*
Y337806D01*
Y338156D01*
X354604D01*
Y338506D01*
Y338856D01*
X354953D01*
Y339205D01*
X355303D01*
Y339555D01*
Y339905D01*
X355653D01*
Y340255D01*
Y340605D01*
X356003D01*
Y340954D01*
Y341304D01*
X356353D01*
Y341654D01*
Y342004D01*
Y342353D01*
X356702D01*
Y342703D01*
Y343053D01*
X357052D01*
Y343403D01*
Y343753D01*
Y344102D01*
Y344452D01*
X357402D01*
Y344802D01*
Y345152D01*
Y345502D01*
Y345852D01*
Y346201D01*
X357752D01*
Y346551D01*
Y346901D01*
Y347251D01*
Y347600D01*
Y347950D01*
Y348300D01*
Y348650D01*
Y349000D01*
Y349349D01*
X358102D01*
Y349699D01*
Y350049D01*
Y350399D01*
Y350749D01*
Y351098D01*
Y351448D01*
Y351798D01*
Y352148D01*
Y352498D01*
Y352848D01*
Y353197D01*
X358451D01*
Y353547D01*
Y353897D01*
Y354247D01*
Y354596D01*
Y354946D01*
Y355296D01*
Y355646D01*
Y355996D01*
Y356345D01*
Y356695D01*
Y357045D01*
Y357395D01*
X358801D01*
Y357745D01*
Y358094D01*
Y358444D01*
Y358794D01*
Y359144D01*
Y359494D01*
Y359843D01*
Y360193D01*
Y360543D01*
Y360893D01*
Y361243D01*
Y361592D01*
X359151D01*
Y361942D01*
Y362292D01*
Y362642D01*
Y362992D01*
Y363341D01*
Y363691D01*
X359501D01*
Y364041D01*
X359851D01*
Y363691D01*
D02*
G37*
G36*
X380432Y512328D02*
X382464D01*
Y510296D01*
X380432D01*
Y512328D01*
X378400D01*
Y514360D01*
X380432D01*
Y512328D01*
D02*
G37*
D48*
X76200Y497840D02*
D03*
X50800D02*
D03*
X25400D02*
D03*
X76200Y472440D02*
D03*
X50800D02*
D03*
X76200Y411480D02*
D03*
X50800D02*
D03*
X25400D02*
D03*
X76200Y386080D02*
D03*
X50800D02*
D03*
X25400Y342000D02*
D03*
X50800Y316600D02*
D03*
X25400D02*
D03*
D49*
Y472440D02*
D03*
Y386080D02*
D03*
X50800Y342000D02*
D03*
D71*
X246500Y84750D02*
D03*
D77*
X290450Y125730D02*
D03*
X315850D02*
D03*
X341250D02*
D03*
X366650D02*
D03*
X392050D02*
D03*
X417450D02*
D03*
X442850D02*
D03*
X468250D02*
D03*
X493650D02*
D03*
X519050D02*
D03*
X544450D02*
D03*
X569850D02*
D03*
X595250D02*
D03*
X620650D02*
D03*
X290450Y201930D02*
D03*
X315850D02*
D03*
X341250D02*
D03*
X366650D02*
D03*
X392050D02*
D03*
X417450D02*
D03*
X442850D02*
D03*
X468250D02*
D03*
X493650D02*
D03*
X519050D02*
D03*
X544450D02*
D03*
X569850D02*
D03*
X595250D02*
D03*
X304800Y25400D02*
D03*
X330200D02*
D03*
X355600D02*
D03*
X381000D02*
D03*
X406400D02*
D03*
X431800D02*
D03*
X457200D02*
D03*
X533400D02*
D03*
X558800D02*
D03*
X584200D02*
D03*
X609600D02*
D03*
X635000D02*
D03*
X609600Y508000D02*
D03*
X584200D02*
D03*
X558800D02*
D03*
X533400D02*
D03*
X508000D02*
D03*
X482600D02*
D03*
X457200D02*
D03*
X187960D02*
D03*
X213360D02*
D03*
X238760D02*
D03*
X264160D02*
D03*
X289560D02*
D03*
X314960D02*
D03*
X340360D02*
D03*
X365760D02*
D03*
X391160D02*
D03*
X141600Y88000D02*
D03*
X167000D02*
D03*
D78*
X620650Y201930D02*
D03*
X279400Y25400D02*
D03*
X508000D02*
D03*
X635000Y508000D02*
D03*
X416560D02*
D03*
X116200Y88000D02*
D03*
D79*
X152400Y508000D02*
D03*
D80*
X660400Y355600D02*
D03*
Y76200D02*
D03*
X139700Y25400D02*
D03*
D81*
X21000Y130000D02*
D03*
Y25000D02*
D03*
D82*
X21995Y234000D02*
D03*
Y168000D02*
D03*
D83*
X662000Y469000D02*
D03*
X146000Y446000D02*
D03*
D84*
X662000Y443600D02*
D03*
Y418200D02*
D03*
X146000Y420600D02*
D03*
Y395200D02*
D03*
Y369800D02*
D03*
D85*
X663000Y308000D02*
D03*
X598000D02*
D03*
Y263000D02*
D03*
X246500Y19750D02*
D03*
X201500D02*
D03*
Y84750D02*
D03*
D86*
X663000Y263000D02*
D03*
M02*
