G04 Layer_Color=8421504*
%FSLAX44Y44*%
%MOMM*%
G71*
G01*
G75*
%ADD10R,2.6000X2.5000*%
%ADD11R,2.5000X2.6000*%
%ADD12R,1.0000X0.5500*%
%ADD13R,0.5500X1.0000*%
%ADD14R,0.6000X2.2000*%
%ADD15R,3.5000X2.2000*%
%ADD16R,0.5500X1.5000*%
%ADD17R,1.5000X0.5500*%
%ADD18R,2.7000X2.0000*%
%ADD20R,1.3000X0.9000*%
%ADD21R,0.9000X1.3000*%
%ADD22R,0.8000X0.8000*%
%ADD23R,1.6000X3.0000*%
%ADD24R,1.3500X0.4000*%
%ADD25R,1.4000X1.6000*%
%ADD26R,1.9000X1.9000*%
%ADD27R,0.6858X0.5588*%
%ADD28R,0.5588X0.6858*%
%ADD29R,1.3000X0.7000*%
%ADD30R,0.7000X1.3000*%
%ADD31R,0.9000X0.6000*%
D10*
X249000Y317500D02*
D03*
Y268500D02*
D03*
D11*
X412500Y290000D02*
D03*
X461500D02*
D03*
D12*
X238000Y141000D02*
D03*
Y160000D02*
D03*
X211000Y141000D02*
D03*
Y150500D02*
D03*
Y160000D02*
D03*
X197500Y426500D02*
D03*
Y445500D02*
D03*
X170500Y426500D02*
D03*
Y436000D02*
D03*
Y445500D02*
D03*
D13*
X652500Y140500D02*
D03*
X671500D02*
D03*
X652500Y167500D02*
D03*
X662000D02*
D03*
X671500D02*
D03*
X69500Y277500D02*
D03*
X50500D02*
D03*
X69500Y250500D02*
D03*
X60000D02*
D03*
X50500D02*
D03*
D14*
X136600Y116000D02*
D03*
X149300D02*
D03*
X162000D02*
D03*
X174700D02*
D03*
X187400D02*
D03*
D15*
X162000Y178000D02*
D03*
D16*
X182000Y258000D02*
D03*
X174000D02*
D03*
X166000D02*
D03*
X158000D02*
D03*
X150000D02*
D03*
X142000D02*
D03*
X134000D02*
D03*
X126000D02*
D03*
Y342000D02*
D03*
X134000D02*
D03*
X142000D02*
D03*
X150000D02*
D03*
X158000D02*
D03*
X166000D02*
D03*
X174000D02*
D03*
X182000D02*
D03*
D17*
X112000Y272000D02*
D03*
Y280000D02*
D03*
Y288000D02*
D03*
Y296000D02*
D03*
Y304000D02*
D03*
Y312000D02*
D03*
Y320000D02*
D03*
Y328000D02*
D03*
X196000D02*
D03*
Y320000D02*
D03*
Y312000D02*
D03*
Y304000D02*
D03*
Y296000D02*
D03*
Y288000D02*
D03*
Y280000D02*
D03*
Y272000D02*
D03*
D18*
X22000Y60000D02*
D03*
Y92000D02*
D03*
D20*
X448000Y77500D02*
D03*
Y58500D02*
D03*
X199000Y199500D02*
D03*
Y180500D02*
D03*
X233000Y102500D02*
D03*
Y121500D02*
D03*
X648000Y205500D02*
D03*
Y186500D02*
D03*
X222000Y180500D02*
D03*
Y199500D02*
D03*
X218000Y444500D02*
D03*
Y425500D02*
D03*
X356000Y48500D02*
D03*
Y67500D02*
D03*
X304000Y47500D02*
D03*
Y66500D02*
D03*
X210000Y102500D02*
D03*
Y121500D02*
D03*
X115000Y112500D02*
D03*
Y131500D02*
D03*
X636000Y472500D02*
D03*
Y453500D02*
D03*
X23000Y432500D02*
D03*
Y451500D02*
D03*
X176000Y237500D02*
D03*
Y218500D02*
D03*
X218000Y300500D02*
D03*
Y319500D02*
D03*
X199000Y237500D02*
D03*
Y218500D02*
D03*
X222000Y218500D02*
D03*
Y237500D02*
D03*
D21*
X487500Y53000D02*
D03*
X468500D02*
D03*
X581750Y335250D02*
D03*
X600750D02*
D03*
X89500Y239000D02*
D03*
X108500D02*
D03*
X48500Y293000D02*
D03*
X67500D02*
D03*
X654500Y123000D02*
D03*
X673500D02*
D03*
X447500Y258000D02*
D03*
X466500D02*
D03*
X426500D02*
D03*
X407500D02*
D03*
X445500Y99000D02*
D03*
X464500D02*
D03*
X427500D02*
D03*
X408500D02*
D03*
X427500Y76000D02*
D03*
X408500D02*
D03*
X243500Y482000D02*
D03*
X262500D02*
D03*
X466500Y234000D02*
D03*
X447500D02*
D03*
X487500Y76000D02*
D03*
X468500D02*
D03*
X21500Y522000D02*
D03*
X40500D02*
D03*
X383500Y51000D02*
D03*
X402500D02*
D03*
X241500Y240000D02*
D03*
X260500D02*
D03*
X238500Y346000D02*
D03*
X257500D02*
D03*
X127500Y235000D02*
D03*
X146500D02*
D03*
D22*
X257000Y382000D02*
D03*
X241000D02*
D03*
X257000Y401000D02*
D03*
X241000D02*
D03*
X257000Y425000D02*
D03*
X241000D02*
D03*
X600250Y379250D02*
D03*
X584250D02*
D03*
D23*
X72000Y64500D02*
D03*
Y23500D02*
D03*
X73000Y141500D02*
D03*
Y100500D02*
D03*
D24*
X48745Y214000D02*
D03*
Y207500D02*
D03*
Y201000D02*
D03*
Y194500D02*
D03*
Y188000D02*
D03*
D25*
X46495Y233000D02*
D03*
Y169000D02*
D03*
D26*
X21995Y189000D02*
D03*
Y213000D02*
D03*
D27*
X10000Y269808D02*
D03*
Y294192D02*
D03*
D28*
X603808Y244000D02*
D03*
X628192D02*
D03*
D29*
X174000Y407500D02*
D03*
Y388500D02*
D03*
X218000Y264500D02*
D03*
Y283500D02*
D03*
X608000Y473500D02*
D03*
Y454500D02*
D03*
X581000D02*
D03*
Y473500D02*
D03*
X636000Y431500D02*
D03*
Y412500D02*
D03*
X254000Y142500D02*
D03*
Y161500D02*
D03*
X648000Y243500D02*
D03*
Y224500D02*
D03*
X333000Y66500D02*
D03*
Y85500D02*
D03*
Y66500D02*
D03*
Y47500D02*
D03*
X90000Y263500D02*
D03*
Y282500D02*
D03*
X669000Y206000D02*
D03*
Y187000D02*
D03*
X29000Y271500D02*
D03*
Y290500D02*
D03*
X669000Y224500D02*
D03*
Y243500D02*
D03*
X275000Y67500D02*
D03*
Y48500D02*
D03*
D30*
X278250Y442000D02*
D03*
X297250D02*
D03*
Y419000D02*
D03*
X278250D02*
D03*
X99500Y350000D02*
D03*
X80500D02*
D03*
X107500Y216000D02*
D03*
X88500D02*
D03*
Y194000D02*
D03*
X107500D02*
D03*
Y172000D02*
D03*
X88500D02*
D03*
X391500Y100000D02*
D03*
X372500D02*
D03*
X238500Y443000D02*
D03*
X257500D02*
D03*
X427500Y234000D02*
D03*
X408500D02*
D03*
X581750Y359250D02*
D03*
X600750D02*
D03*
X31500Y253000D02*
D03*
X12500D02*
D03*
X271500Y88000D02*
D03*
X290500D02*
D03*
X128500Y212000D02*
D03*
X147500D02*
D03*
X607500Y227000D02*
D03*
X626500D02*
D03*
D31*
X72000Y211500D02*
D03*
Y226500D02*
D03*
Y182500D02*
D03*
Y197500D02*
D03*
M02*
