G04 Layer_Color=8388736*
%FSLAX44Y44*%
%MOMM*%
G71*
G01*
G75*
%ADD52C,0.2540*%
%ADD88C,1.0160*%
%ADD89C,0.1524*%
%ADD90C,0.7000*%
%ADD91C,0.3810*%
D52*
X-192540Y533400D02*
X-2540D01*
X-192540Y0D02*
X-2540D01*
X-190000Y293361D02*
Y533400D01*
Y0D02*
Y231911D01*
X-195080Y518160D02*
X-190000Y533400D01*
X-184920Y518160D01*
X-190000Y0D02*
X-184920Y15240D01*
X-195080D02*
X-190000Y0D01*
X685800Y-172540D02*
Y-11020D01*
X0Y-172540D02*
Y-11020D01*
X370831Y-170000D02*
X685800D01*
X0D02*
X306841D01*
X670560Y-164920D02*
X685800Y-170000D01*
X670560Y-175080D02*
X685800Y-170000D01*
X0D02*
X15240Y-175080D01*
X0Y-170000D02*
X15240Y-164920D01*
X139700Y-52540D02*
Y-15140D01*
X0Y-52540D02*
Y-2540D01*
X90163Y-50000D02*
X139700D01*
X0D02*
X41409D01*
X124460Y-44920D02*
X139700Y-50000D01*
X124460Y-55080D02*
X139700Y-50000D01*
X0D02*
X15240Y-55080D01*
X0Y-50000D02*
X15240Y-44920D01*
X-42540Y25400D02*
X99160D01*
X-42540Y0D02*
X-2540D01*
X-40000Y-25400D02*
Y0D01*
Y25400D02*
Y50800D01*
X-45080Y-15240D02*
X-40000Y0D01*
X-34920Y-15240D01*
X-40000Y25400D02*
X-34920Y40640D01*
X-45080D02*
X-40000Y25400D01*
X660400Y-132540D02*
Y35660D01*
X0Y-132540D02*
Y-2540D01*
X358131Y-130000D02*
X660400D01*
X0D02*
X294141D01*
X645160Y-124920D02*
X660400Y-130000D01*
X645160Y-135080D02*
X660400Y-130000D01*
X0D02*
X15240Y-135080D01*
X0Y-130000D02*
X15240Y-124920D01*
X-82540Y76200D02*
X619860D01*
X-82540Y0D02*
X-2540D01*
X-80000Y-25400D02*
Y0D01*
Y76200D02*
Y101600D01*
X-85080Y-15240D02*
X-80000Y0D01*
X-74920Y-15240D01*
X-80000Y76200D02*
X-74920Y91440D01*
X-85080D02*
X-80000Y76200D01*
X-152540Y508000D02*
X132860D01*
X-152540Y0D02*
X-2540D01*
X-150000Y281931D02*
Y508000D01*
Y0D02*
Y217941D01*
X-155080Y492760D02*
X-150000Y508000D01*
X-144920Y492760D01*
X-150000Y0D02*
X-144920Y15240D01*
X-155080D02*
X-150000Y0D01*
X-112540Y355600D02*
X619860D01*
X-112540Y0D02*
X-2540D01*
X-110000Y204461D02*
Y355600D01*
Y0D02*
Y143011D01*
X-115080Y340360D02*
X-110000Y355600D01*
X-104920Y340360D01*
X-110000Y0D02*
X-104920Y15240D01*
X-115080D02*
X-110000Y0D01*
X660400Y-132540D02*
Y315060D01*
X0Y-132540D02*
Y-11020D01*
X358131Y-130000D02*
X660400D01*
X0D02*
X294141D01*
X645160Y-124920D02*
X660400Y-130000D01*
X645160Y-135080D02*
X660400Y-130000D01*
X0D02*
X15240Y-135080D01*
X0Y-130000D02*
X15240Y-124920D01*
X152400Y-92540D02*
Y488460D01*
X0Y-92540D02*
Y530860D01*
X96513Y-90000D02*
X152400D01*
X0D02*
X47759D01*
X137160Y-84920D02*
X152400Y-90000D01*
X137160Y-95080D02*
X152400Y-90000D01*
X0D02*
X15240Y-95080D01*
X0Y-90000D02*
X15240Y-84920D01*
D88*
X168400Y508000D02*
G03*
X168400Y508000I-16000J0D01*
G01*
X155700Y25400D02*
G03*
X155700Y25400I-16000J0D01*
G01*
X676400Y76200D02*
G03*
X676400Y76200I-16000J0D01*
G01*
Y355600D02*
G03*
X676400Y355600I-16000J0D01*
G01*
X685800Y-3400D02*
Y530000D01*
X0Y-3400D02*
X685800D01*
X0Y530000D02*
X685800D01*
X0Y-3400D02*
Y530000D01*
D89*
X-180858Y246131D02*
Y235975D01*
X-191015Y246131D01*
X-193554D01*
X-196094Y243592D01*
Y238514D01*
X-193554Y235975D01*
X-180858Y251210D02*
Y256288D01*
Y253749D01*
X-196094D01*
X-193554Y251210D01*
Y263906D02*
X-196094Y266445D01*
Y271523D01*
X-193554Y274062D01*
X-183398D01*
X-180858Y271523D01*
Y266445D01*
X-183398Y263906D01*
X-193554D01*
Y279141D02*
X-196094Y281680D01*
Y286758D01*
X-193554Y289297D01*
X-183398D01*
X-180858Y286758D01*
Y281680D01*
X-183398Y279141D01*
X-193554D01*
X321062Y-179142D02*
X310905D01*
X321062Y-168985D01*
Y-166446D01*
X318523Y-163906D01*
X313444D01*
X310905Y-166446D01*
X326140Y-163906D02*
X336297D01*
Y-166446D01*
X326140Y-176602D01*
Y-179142D01*
X341375Y-166446D02*
X343914Y-163906D01*
X348993D01*
X351532Y-166446D01*
Y-176602D01*
X348993Y-179142D01*
X343914D01*
X341375Y-176602D01*
Y-166446D01*
X356610D02*
X359149Y-163906D01*
X364228D01*
X366767Y-166446D01*
Y-176602D01*
X364228Y-179142D01*
X359149D01*
X356610Y-176602D01*
Y-166446D01*
X55629Y-43906D02*
X45473D01*
Y-51524D01*
X50551Y-48985D01*
X53090D01*
X55629Y-51524D01*
Y-56602D01*
X53090Y-59142D01*
X48012D01*
X45473Y-56602D01*
X70864Y-43906D02*
X60708D01*
Y-51524D01*
X65786Y-48985D01*
X68325D01*
X70864Y-51524D01*
Y-56602D01*
X68325Y-59142D01*
X63247D01*
X60708Y-56602D01*
X75943Y-46446D02*
X78482Y-43906D01*
X83560D01*
X86099Y-46446D01*
Y-56602D01*
X83560Y-59142D01*
X78482D01*
X75943Y-56602D01*
Y-46446D01*
X-30859Y-69076D02*
Y-63997D01*
Y-66536D01*
X-46094D01*
X-43554Y-69076D01*
Y-56380D02*
X-46094Y-53841D01*
Y-48762D01*
X-43554Y-46223D01*
X-33398D01*
X-30859Y-48762D01*
Y-53841D01*
X-33398Y-56380D01*
X-43554D01*
Y-41145D02*
X-46094Y-38605D01*
Y-33527D01*
X-43554Y-30988D01*
X-33398D01*
X-30859Y-33527D01*
Y-38605D01*
X-33398Y-41145D01*
X-43554D01*
X308362Y-139142D02*
X298205D01*
X308362Y-128985D01*
Y-126446D01*
X305823Y-123906D01*
X300744D01*
X298205Y-126446D01*
X323597Y-123906D02*
X318518Y-126446D01*
X313440Y-131524D01*
Y-136602D01*
X315979Y-139142D01*
X321058D01*
X323597Y-136602D01*
Y-134063D01*
X321058Y-131524D01*
X313440D01*
X328675Y-126446D02*
X331214Y-123906D01*
X336293D01*
X338832Y-126446D01*
Y-136602D01*
X336293Y-139142D01*
X331214D01*
X328675Y-136602D01*
Y-126446D01*
X343910D02*
X346449Y-123906D01*
X351528D01*
X354067Y-126446D01*
Y-136602D01*
X351528Y-139142D01*
X346449D01*
X343910Y-136602D01*
Y-126446D01*
X-83554Y-71615D02*
X-86094Y-69076D01*
Y-63997D01*
X-83554Y-61458D01*
X-81015D01*
X-78476Y-63997D01*
Y-66536D01*
Y-63997D01*
X-75937Y-61458D01*
X-73398D01*
X-70858Y-63997D01*
Y-69076D01*
X-73398Y-71615D01*
X-83554Y-56380D02*
X-86094Y-53841D01*
Y-48762D01*
X-83554Y-46223D01*
X-73398D01*
X-70858Y-48762D01*
Y-53841D01*
X-73398Y-56380D01*
X-83554D01*
Y-41145D02*
X-86094Y-38605D01*
Y-33527D01*
X-83554Y-30988D01*
X-73398D01*
X-70858Y-33527D01*
Y-38605D01*
X-73398Y-41145D01*
X-83554D01*
X-140858Y232162D02*
Y222005D01*
X-151015Y232162D01*
X-153554D01*
X-156094Y229623D01*
Y224544D01*
X-153554Y222005D01*
Y237240D02*
X-156094Y239779D01*
Y244858D01*
X-153554Y247397D01*
X-143398D01*
X-140858Y244858D01*
Y239779D01*
X-143398Y237240D01*
X-153554D01*
Y252475D02*
X-156094Y255014D01*
Y260093D01*
X-153554Y262632D01*
X-143398D01*
X-140858Y260093D01*
Y255014D01*
X-143398Y252475D01*
X-153554D01*
Y267710D02*
X-156094Y270249D01*
Y275328D01*
X-153554Y277867D01*
X-143398D01*
X-140858Y275328D01*
Y270249D01*
X-143398Y267710D01*
X-153554D01*
X-100858Y147075D02*
Y152153D01*
Y149614D01*
X-116094D01*
X-113554Y147075D01*
X-100858Y167388D02*
X-116094D01*
X-108476Y159770D01*
Y169927D01*
X-113554Y175006D02*
X-116094Y177545D01*
Y182623D01*
X-113554Y185162D01*
X-103398D01*
X-100858Y182623D01*
Y177545D01*
X-103398Y175006D01*
X-113554D01*
Y190241D02*
X-116094Y192780D01*
Y197858D01*
X-113554Y200397D01*
X-103398D01*
X-100858Y197858D01*
Y192780D01*
X-103398Y190241D01*
X-113554D01*
X308362Y-139142D02*
X298205D01*
X308362Y-128985D01*
Y-126446D01*
X305823Y-123906D01*
X300744D01*
X298205Y-126446D01*
X323597Y-123906D02*
X318518Y-126446D01*
X313440Y-131524D01*
Y-136602D01*
X315979Y-139142D01*
X321058D01*
X323597Y-136602D01*
Y-134063D01*
X321058Y-131524D01*
X313440D01*
X328675Y-126446D02*
X331214Y-123906D01*
X336293D01*
X338832Y-126446D01*
Y-136602D01*
X336293Y-139142D01*
X331214D01*
X328675Y-136602D01*
Y-126446D01*
X343910D02*
X346449Y-123906D01*
X351528D01*
X354067Y-126446D01*
Y-136602D01*
X351528Y-139142D01*
X346449D01*
X343910Y-136602D01*
Y-126446D01*
X61979Y-83906D02*
X56901Y-86446D01*
X51823Y-91524D01*
Y-96602D01*
X54362Y-99142D01*
X59440D01*
X61979Y-96602D01*
Y-94063D01*
X59440Y-91524D01*
X51823D01*
X67058Y-86446D02*
X69597Y-83906D01*
X74675D01*
X77214Y-86446D01*
Y-96602D01*
X74675Y-99142D01*
X69597D01*
X67058Y-96602D01*
Y-86446D01*
X82293D02*
X84832Y-83906D01*
X89910D01*
X92449Y-86446D01*
Y-96602D01*
X89910Y-99142D01*
X84832D01*
X82293Y-96602D01*
Y-86446D01*
D90*
X40000Y690000D02*
Y724989D01*
X51663Y713326D01*
X63326Y724989D01*
Y690000D01*
X92483D02*
X80820D01*
X74989Y695832D01*
Y707494D01*
X80820Y713326D01*
X92483D01*
X98315Y707494D01*
Y701663D01*
X74989D01*
X133303Y713326D02*
X115809D01*
X109977Y707494D01*
Y695832D01*
X115809Y690000D01*
X133303D01*
X144966Y724989D02*
Y690000D01*
Y707494D01*
X150798Y713326D01*
X162460D01*
X168292Y707494D01*
Y690000D01*
X185786Y713326D02*
X197449D01*
X203281Y707494D01*
Y690000D01*
X185786D01*
X179955Y695832D01*
X185786Y701663D01*
X203281D01*
X214944Y690000D02*
Y713326D01*
X232438D01*
X238269Y707494D01*
Y690000D01*
X249932D02*
X261595D01*
X255764D01*
Y713326D01*
X249932D01*
X302415D02*
X284921D01*
X279090Y707494D01*
Y695832D01*
X284921Y690000D01*
X302415D01*
X319910Y713326D02*
X331572D01*
X337404Y707494D01*
Y690000D01*
X319910D01*
X314078Y695832D01*
X319910Y701663D01*
X337404D01*
X349067Y690000D02*
X360730D01*
X354898D01*
Y724989D01*
X349067D01*
X413213D02*
Y690000D01*
X430707D01*
X436539Y695832D01*
Y719157D01*
X430707Y724989D01*
X413213D01*
X448201Y713326D02*
Y690000D01*
Y701663D01*
X454033Y707494D01*
X459864Y713326D01*
X465696D01*
X489022D02*
X500685D01*
X506516Y707494D01*
Y690000D01*
X489022D01*
X483190Y695832D01*
X489022Y701663D01*
X506516D01*
X518179Y713326D02*
Y695832D01*
X524010Y690000D01*
X529842Y695832D01*
X535673Y690000D01*
X541505Y695832D01*
Y713326D01*
X553168Y690000D02*
X564831D01*
X558999D01*
Y713326D01*
X553168D01*
X582325Y690000D02*
Y713326D01*
X599819D01*
X605651Y707494D01*
Y690000D01*
X628977Y678337D02*
X634808D01*
X640639Y684168D01*
Y713326D01*
X623145D01*
X617314Y707494D01*
Y695832D01*
X623145Y690000D01*
X640639D01*
X125831Y630000D02*
X137494D01*
X143326Y635831D01*
Y647494D01*
X137494Y653326D01*
X125831D01*
X120000Y647494D01*
Y635831D01*
X125831Y630000D01*
X160820D02*
Y659157D01*
Y647494D01*
X154989D01*
X166652D01*
X160820D01*
Y659157D01*
X166652Y664989D01*
X242460Y630000D02*
X219135D01*
X242460Y653326D01*
Y659157D01*
X236629Y664989D01*
X224966D01*
X219135Y659157D01*
X254123D02*
X259955Y664989D01*
X271618D01*
X277449Y659157D01*
Y653326D01*
X271618Y647494D01*
X277449Y641663D01*
Y635831D01*
X271618Y630000D01*
X259955D01*
X254123Y635831D01*
Y641663D01*
X259955Y647494D01*
X254123Y653326D01*
Y659157D01*
X259955Y647494D02*
X271618D01*
X324101Y630000D02*
Y664989D01*
X341595D01*
X347426Y659157D01*
Y647494D01*
X341595Y641663D01*
X324101D01*
X359090Y630000D02*
X370752D01*
X364921D01*
Y653326D01*
X359090D01*
X388247Y630000D02*
Y653326D01*
X405741D01*
X411572Y647494D01*
Y630000D01*
X423235D02*
X440730D01*
X446561Y635831D01*
X440730Y641663D01*
X429067D01*
X423235Y647494D01*
X429067Y653326D01*
X446561D01*
X493213Y664989D02*
Y641663D01*
X504876Y630000D01*
X516539Y641663D01*
Y664989D01*
X528201Y630000D02*
X539864D01*
X534033D01*
Y664989D01*
X528201Y659157D01*
X557359Y664989D02*
X569022D01*
X563190D01*
Y630000D01*
X557359D01*
X569022D01*
X586516D02*
X598179D01*
X592347D01*
Y664989D01*
X586516Y659157D01*
D91*
X-250000Y-99687D02*
Y-116614D01*
X-246614Y-120000D01*
X-239843D01*
X-236458Y-116614D01*
Y-99687D01*
X-229687Y-120000D02*
Y-106458D01*
X-219530D01*
X-216144Y-109843D01*
Y-120000D01*
X-209373D02*
X-202602D01*
X-205988D01*
Y-106458D01*
X-209373D01*
X-189060Y-103072D02*
Y-106458D01*
X-192445D01*
X-185674D01*
X-189060D01*
Y-116614D01*
X-185674Y-120000D01*
X-175518D02*
X-165361D01*
X-161975Y-116614D01*
X-165361Y-113229D01*
X-172132D01*
X-175518Y-109843D01*
X-172132Y-106458D01*
X-161975D01*
X-134891Y-113229D02*
X-121348D01*
X-134891Y-106458D02*
X-121348D01*
X-94264Y-120000D02*
Y-106458D01*
X-90878D01*
X-87493Y-109843D01*
Y-120000D01*
Y-109843D01*
X-84107Y-106458D01*
X-80722Y-109843D01*
Y-120000D01*
X-73950D02*
X-67179D01*
X-70565D01*
Y-106458D01*
X-73950D01*
X-57023Y-120000D02*
X-50251D01*
X-53637D01*
Y-99687D01*
X-57023D01*
X-40095Y-120000D02*
X-29938D01*
X-26552Y-116614D01*
X-29938Y-113229D01*
X-36709D01*
X-40095Y-109843D01*
X-36709Y-106458D01*
X-26552D01*
X-236458Y-153072D02*
X-239843Y-149687D01*
X-246614D01*
X-250000Y-153072D01*
Y-156458D01*
X-246614Y-159843D01*
X-239843D01*
X-236458Y-163229D01*
Y-166614D01*
X-239843Y-170000D01*
X-246614D01*
X-250000Y-166614D01*
X-216144Y-156458D02*
X-226301D01*
X-229687Y-159843D01*
Y-166614D01*
X-226301Y-170000D01*
X-216144D01*
X-205988Y-156458D02*
X-199216D01*
X-195831Y-159843D01*
Y-170000D01*
X-205988D01*
X-209373Y-166614D01*
X-205988Y-163229D01*
X-195831D01*
X-189060Y-170000D02*
X-182289D01*
X-185674D01*
Y-149687D01*
X-189060D01*
X-161975Y-170000D02*
X-168746D01*
X-172132Y-166614D01*
Y-159843D01*
X-168746Y-156458D01*
X-161975D01*
X-158590Y-159843D01*
Y-163229D01*
X-172132D01*
X-131505Y-170000D02*
X-124734D01*
X-128119D01*
Y-149687D01*
X-131505Y-153072D01*
X-114577Y-156458D02*
X-111192D01*
Y-159843D01*
X-114577D01*
Y-156458D01*
Y-166614D02*
X-111192D01*
Y-170000D01*
X-114577D01*
Y-166614D01*
X-97649Y-170000D02*
X-90878D01*
X-94264D01*
Y-149687D01*
X-97649Y-153072D01*
M02*
