M48
;Layer_Color=9474304
;FILE_FORMAT=4:4
METRIC,LZ
;TYPE=PLATED
T1F00S00C0.3000
T3F00S00C1.0000
T4F00S00C1.1000
T5F00S00C1.5000
T6F00S00C3.2000
;TYPE=NON_PLATED
T7F00S00C3.2000
%
T01
X00681Y00123
X0067075Y0015625
X006335Y0017225
X0063125Y001835
X00607Y00184
X00612Y00054
X00619
X004685Y00043
X00448Y0004325
X00417Y00063
X00409
X004
X003965Y00076
X00371Y00073
X00322Y00063
X00316Y00057
X00304Y00089
X0029125Y000765
X00302Y0016975
X0032925Y00169
X00254Y00184
X0023525Y001995
X00233Y0013275
X00403Y00111
X00456Y00113
X00468Y00086
X004815Y0009325
X00443Y0016
X004425Y0022
X0020925Y0020975
X00199Y00211
X00176Y00208
X001775Y00199
X00166Y0021
X00158Y00203
X0014Y00185
Y00177
Y00169
X0012425Y0017475
X00118Y00167
Y00157
X00108
X00128
X0014725Y0013825
X00162Y0013775
X0019175Y001405
X0021Y0013225
X00088Y00111
Y00103
X000815Y00183
X0011625Y00194
Y0021625
X0013875Y002215
X0005975Y0021875
Y0022625
X0008175Y00227
Y002505
X001085Y0025225
X001Y0027225
X0007875Y0029325
X000905Y003205
Y00369
X001
X00115Y00404
Y00413
X00126Y0040675
X001775Y004185
X0019125Y00417
X0020525Y004345
X0022025Y0040625
X00218Y0033325
X0018225Y002875
X0015Y00273
X0022175Y00249
X0004125Y0028525
X0001Y0028475
X00063Y00444
X0005475Y00522
X0022125Y0048175
X002295Y004445
X00278Y00484
X0030975Y00419
X00338Y00426
X00345Y00416
X00406Y00396
Y00389
X00413
Y00396
X00414Y0048
Y00487
X00407
Y0048
X00533Y00416
X00552Y00425
X00562Y00416
X00574Y00408
X00575Y00398
Y00389
Y0038
X0047875Y0025825
X0039475Y002575
X0033Y0026525
X00314Y0025
X0027075Y0023975
X00272Y00346
X0062375Y0045325
T03
X002465Y0001975
Y0008475
X002015
Y0001975
X00598Y00263
Y00308
X00663
Y00263
T04
X00635Y000254
X0062065Y0012573
Y0020193
X0059525
X0056985
X0054445
X0051905
X0049365
X0046825
X0044285
X0041745
X0039205
X0036665
X0034125
X0031585
X0029045
Y0012573
X0031585
X0034125
X0036665
X0039205
X0041745
X0044285
X0046825
X0049365
X0051905
X0054445
X0056985
X0059525
X005842Y000254
X005588
X005334
X00508
X004572
X004318
X004064
X00381
X003556
X003302
X003048
X002794
X006096
X00167Y00088
X001416
X001162
X000508Y003166
Y00342
X000254
Y003166
Y0038608
Y0041148
X000508
X000762
Y0038608
X000508
Y0047244
Y0049784
X000762
Y0047244
X000254
Y0049784
X00146Y00446
Y004206
Y003952
Y003698
X0018796Y00508
X0021336
X0023876
X0026416
X0028956
X0031496
X0034036
X0036576
X0039116
X0041656
X004572
X004826
X00508
X005334
X005588
X005842
X006096
X00635
X00662Y00469
Y004436
Y004182
T05
X00021Y00025
Y0013
T06
X006604Y000762
X001397Y000254
X006604Y003556
T07
X001524Y00508
M30
